<svg id="visual" viewBox="0 0 900 675" width="900" height="675" xmlns="http://www.w3.org/2000/svg" xmlns:xlink="http://www.w3.org/1999/xlink" version="1.1"><rect x="0" y="0" width="900" height="675" fill="#001220"></rect><defs><linearGradient id="grad1_0" x1="25%" y1="0%" x2="100%" y2="100%"><stop offset="23.333333333333336%" stop-color="#fbae3c" stop-opacity="1"></stop><stop offset="76.66666666666666%" stop-color="#fbae3c" stop-opacity="1"></stop></linearGradient></defs><defs><linearGradient id="grad1_1" x1="25%" y1="0%" x2="100%" y2="100%"><stop offset="23.333333333333336%" stop-color="#fbae3c" stop-opacity="1"></stop><stop offset="76.66666666666666%" stop-color="#f17c53" stop-opacity="1"></stop></linearGradient></defs><defs><linearGradient id="grad1_2" x1="25%" y1="0%" x2="100%" y2="100%"><stop offset="23.333333333333336%" stop-color="#cc5867" stop-opacity="1"></stop><stop offset="76.66666666666666%" stop-color="#f17c53" stop-opacity="1"></stop></linearGradient></defs><defs><linearGradient id="grad1_3" x1="25%" y1="0%" x2="100%" y2="100%"><stop offset="23.333333333333336%" stop-color="#cc5867" stop-opacity="1"></stop><stop offset="76.66666666666666%" stop-color="#96446e" stop-opacity="1"></stop></linearGradient></defs><defs><linearGradient id="grad1_4" x1="25%" y1="0%" x2="100%" y2="100%"><stop offset="23.333333333333336%" stop-color="#593762" stop-opacity="1"></stop><stop offset="76.66666666666666%" stop-color="#96446e" stop-opacity="1"></stop></linearGradient></defs><defs><linearGradient id="grad1_5" x1="25%" y1="0%" x2="100%" y2="100%"><stop offset="23.333333333333336%" stop-color="#593762" stop-opacity="1"></stop><stop offset="76.66666666666666%" stop-color="#232745" stop-opacity="1"></stop></linearGradient></defs><defs><linearGradient id="grad1_6" x1="25%" y1="0%" x2="100%" y2="100%"><stop offset="23.333333333333336%" stop-color="#001220" stop-opacity="1"></stop><stop offset="76.66666666666666%" stop-color="#232745" stop-opacity="1"></stop></linearGradient></defs><defs><linearGradient id="grad2_0" x1="0%" y1="0%" x2="75%" y2="100%"><stop offset="23.333333333333336%" stop-color="#fbae3c" stop-opacity="1"></stop><stop offset="76.66666666666666%" stop-color="#fbae3c" stop-opacity="1"></stop></linearGradient></defs><defs><linearGradient id="grad2_1" x1="0%" y1="0%" x2="75%" y2="100%"><stop offset="23.333333333333336%" stop-color="#f17c53" stop-opacity="1"></stop><stop offset="76.66666666666666%" stop-color="#fbae3c" stop-opacity="1"></stop></linearGradient></defs><defs><linearGradient id="grad2_2" x1="0%" y1="0%" x2="75%" y2="100%"><stop offset="23.333333333333336%" stop-color="#f17c53" stop-opacity="1"></stop><stop offset="76.66666666666666%" stop-color="#cc5867" stop-opacity="1"></stop></linearGradient></defs><defs><linearGradient id="grad2_3" x1="0%" y1="0%" x2="75%" y2="100%"><stop offset="23.333333333333336%" stop-color="#96446e" stop-opacity="1"></stop><stop offset="76.66666666666666%" stop-color="#cc5867" stop-opacity="1"></stop></linearGradient></defs><defs><linearGradient id="grad2_4" x1="0%" y1="0%" x2="75%" y2="100%"><stop offset="23.333333333333336%" stop-color="#96446e" stop-opacity="1"></stop><stop offset="76.66666666666666%" stop-color="#593762" stop-opacity="1"></stop></linearGradient></defs><defs><linearGradient id="grad2_5" x1="0%" y1="0%" x2="75%" y2="100%"><stop offset="23.333333333333336%" stop-color="#232745" stop-opacity="1"></stop><stop offset="76.66666666666666%" stop-color="#593762" stop-opacity="1"></stop></linearGradient></defs><defs><linearGradient id="grad2_6" x1="0%" y1="0%" x2="75%" y2="100%"><stop offset="23.333333333333336%" stop-color="#232745" stop-opacity="1"></stop><stop offset="76.66666666666666%" stop-color="#001220" stop-opacity="1"></stop></linearGradient></defs><g transform="translate(900, 0)"><path d="M0 534.4C-60.8 509.6 -121.5 484.9 -192.5 464.7C-263.4 444.5 -344.5 428.8 -377.9 377.9C-411.2 326.9 -396.7 240.7 -414.8 171.8C-432.9 103 -483.7 51.5 -534.4 0L0 0Z" fill="#0f1d33"></path><path d="M0 458C-52.1 436.8 -104.2 415.6 -165 398.3C-225.8 381 -295.3 367.6 -323.9 323.9C-352.4 280.2 -340 206.3 -355.6 147.3C-371.1 88.3 -414.6 44.1 -458 0L0 0Z" fill="#3d3056"></path><path d="M0 381.7C-43.4 364 -86.8 346.4 -137.5 331.9C-188.2 317.5 -246.1 306.3 -269.9 269.9C-293.7 233.5 -283.4 171.9 -296.3 122.7C-309.2 73.6 -345.5 36.8 -381.7 0L0 0Z" fill="#773d6b"></path><path d="M0 305.4C-34.7 291.2 -69.5 277.1 -110 265.5C-150.5 254 -196.9 245 -215.9 215.9C-235 186.8 -226.7 137.5 -237 98.2C-247.4 58.8 -276.4 29.4 -305.4 0L0 0Z" fill="#b34c6d"></path><path d="M0 229C-26 218.4 -52.1 207.8 -82.5 199.2C-112.9 190.5 -147.7 183.8 -161.9 161.9C-176.2 140.1 -170 103.1 -177.8 73.6C-185.5 44.1 -207.3 22.1 -229 0L0 0Z" fill="#e1685e"></path><path d="M0 152.7C-17.4 145.6 -34.7 138.5 -55 132.8C-75.3 127 -98.4 122.5 -108 108C-117.5 93.4 -113.3 68.8 -118.5 49.1C-123.7 29.4 -138.2 14.7 -152.7 0L0 0Z" fill="#f99447"></path><path d="M0 76.3C-8.7 72.8 -17.4 69.3 -27.5 66.4C-37.6 63.5 -49.2 61.3 -54 54C-58.7 46.7 -56.7 34.4 -59.3 24.5C-61.8 14.7 -69.1 7.4 -76.3 0L0 0Z" fill="#fbae3c"></path></g><g transform="translate(0, 675)"><path d="M0 -534.4C78.1 -538.1 156.2 -541.8 204.5 -493.7C252.8 -445.6 271.4 -345.5 277.2 -277.2C283 -208.8 276.1 -172.2 316.9 -131.3C357.6 -90.3 446 -45.2 534.4 0L0 0Z" fill="#0f1d33"></path><path d="M0 -458C66.9 -461.2 133.9 -464.4 175.3 -423.2C216.7 -381.9 232.6 -296.2 237.6 -237.6C242.6 -179 236.7 -147.6 271.6 -112.5C306.5 -77.4 382.3 -38.7 458 0L0 0Z" fill="#3d3056"></path><path d="M0 -381.7C55.8 -384.4 111.6 -387 146.1 -352.6C180.6 -318.3 193.8 -246.8 198 -198C202.2 -149.2 197.2 -123 226.4 -93.8C255.5 -64.5 318.6 -32.3 381.7 0L0 0Z" fill="#773d6b"></path><path d="M0 -305.4C44.6 -307.5 89.2 -309.6 116.9 -282.1C144.5 -254.6 155.1 -197.4 158.4 -158.4C161.7 -119.3 157.8 -98.4 181.1 -75C204.4 -51.6 254.9 -25.8 305.4 0L0 0Z" fill="#b34c6d"></path><path d="M0 -229C33.5 -230.6 66.9 -232.2 87.6 -211.6C108.3 -191 116.3 -148.1 118.8 -118.8C121.3 -89.5 118.3 -73.8 135.8 -56.3C153.3 -38.7 191.1 -19.4 229 0L0 0Z" fill="#e1685e"></path><path d="M0 -152.7C22.3 -153.7 44.6 -154.8 58.4 -141.1C72.2 -127.3 77.5 -98.7 79.2 -79.2C80.9 -59.7 78.9 -49.2 90.5 -37.5C102.2 -25.8 127.4 -12.9 152.7 0L0 0Z" fill="#f99447"></path><path d="M0 -76.3C11.2 -76.9 22.3 -77.4 29.2 -70.5C36.1 -63.7 38.8 -49.4 39.6 -39.6C40.4 -29.8 39.4 -24.6 45.3 -18.8C51.1 -12.9 63.7 -6.5 76.3 0L0 0Z" fill="#fbae3c"></path></g></svg>