<svg id="visual" viewBox="0 0 900 675" width="900" height="675" xmlns="http://www.w3.org/2000/svg" xmlns:xlink="http://www.w3.org/1999/xlink" version="1.1"><rect x="0" y="0" width="900" height="675" fill="#001220"></rect><path d="M0 451L9.3 452.5C18.7 454 37.3 457 56.2 468.5C75 480 94 500 112.8 508.2C131.7 516.3 150.3 512.7 169 509.3C187.7 506 206.3 503 225 504.2C243.7 505.3 262.3 510.7 281.2 503C300 495.3 319 474.7 337.8 464.7C356.7 454.7 375.3 455.3 394 466.7C412.7 478 431.3 500 450 504.8C468.7 509.7 487.3 497.3 506.2 496.7C525 496 544 507 562.8 511.7C581.7 516.3 600.3 514.7 619 502.7C637.7 490.7 656.3 468.3 675 459.7C693.7 451 712.3 456 731.2 463.7C750 471.3 769 481.7 787.8 488.5C806.7 495.3 825.3 498.7 844 496.3C862.7 494 881.3 486 890.7 482L900 478L900 676L890.7 676C881.3 676 862.7 676 844 676C825.3 676 806.7 676 787.8 676C769 676 750 676 731.2 676C712.3 676 693.7 676 675 676C656.3 676 637.7 676 619 676C600.3 676 581.7 676 562.8 676C544 676 525 676 506.2 676C487.3 676 468.7 676 450 676C431.3 676 412.7 676 394 676C375.3 676 356.7 676 337.8 676C319 676 300 676 281.2 676C262.3 676 243.7 676 225 676C206.3 676 187.7 676 169 676C150.3 676 131.7 676 112.8 676C94 676 75 676 56.2 676C37.3 676 18.7 676 9.3 676L0 676Z" fill="#009473"></path><path d="M0 481L9.3 491C18.7 501 37.3 521 56.2 519C75 517 94 493 112.8 484.3C131.7 475.7 150.3 482.3 169 493.2C187.7 504 206.3 519 225 526.5C243.7 534 262.3 534 281.2 527.7C300 521.3 319 508.7 337.8 507.5C356.7 506.3 375.3 516.7 394 520.8C412.7 525 431.3 523 450 517.2C468.7 511.3 487.3 501.7 506.2 497.7C525 493.7 544 495.3 562.8 498.5C581.7 501.7 600.3 506.3 619 503C637.7 499.7 656.3 488.3 675 493.2C693.7 498 712.3 519 731.2 528.7C750 538.3 769 536.7 787.8 529.2C806.7 521.7 825.3 508.3 844 501C862.7 493.7 881.3 492.3 890.7 491.7L900 491L900 676L890.7 676C881.3 676 862.7 676 844 676C825.3 676 806.7 676 787.8 676C769 676 750 676 731.2 676C712.3 676 693.7 676 675 676C656.3 676 637.7 676 619 676C600.3 676 581.7 676 562.8 676C544 676 525 676 506.2 676C487.3 676 468.7 676 450 676C431.3 676 412.7 676 394 676C375.3 676 356.7 676 337.8 676C319 676 300 676 281.2 676C262.3 676 243.7 676 225 676C206.3 676 187.7 676 169 676C150.3 676 131.7 676 112.8 676C94 676 75 676 56.2 676C37.3 676 18.7 676 9.3 676L0 676Z" fill="#008366"></path><path d="M0 531L9.3 534.5C18.7 538 37.3 545 56.2 543.7C75 542.3 94 532.7 112.8 523.7C131.7 514.7 150.3 506.3 169 505.8C187.7 505.3 206.3 512.7 225 518.5C243.7 524.3 262.3 528.7 281.2 530.8C300 533 319 533 337.8 535.8C356.7 538.7 375.3 544.3 394 542C412.7 539.7 431.3 529.3 450 522.2C468.7 515 487.3 511 506.2 507.5C525 504 544 501 562.8 510.2C581.7 519.3 600.3 540.7 619 551.5C637.7 562.3 656.3 562.7 675 559.7C693.7 556.7 712.3 550.3 731.2 548.7C750 547 769 550 787.8 551.7C806.7 553.3 825.3 553.7 844 548.5C862.7 543.3 881.3 532.7 890.7 527.3L900 522L900 676L890.7 676C881.3 676 862.7 676 844 676C825.3 676 806.7 676 787.8 676C769 676 750 676 731.2 676C712.3 676 693.7 676 675 676C656.3 676 637.7 676 619 676C600.3 676 581.7 676 562.8 676C544 676 525 676 506.2 676C487.3 676 468.7 676 450 676C431.3 676 412.7 676 394 676C375.3 676 356.7 676 337.8 676C319 676 300 676 281.2 676C262.3 676 243.7 676 225 676C206.3 676 187.7 676 169 676C150.3 676 131.7 676 112.8 676C94 676 75 676 56.2 676C37.3 676 18.7 676 9.3 676L0 676Z" fill="#007259"></path><path d="M0 558L9.3 553C18.7 548 37.3 538 56.2 540.3C75 542.7 94 557.3 112.8 565.8C131.7 574.3 150.3 576.7 169 571.8C187.7 567 206.3 555 225 553C243.7 551 262.3 559 281.2 562C300 565 319 563 337.8 563C356.7 563 375.3 565 394 560.2C412.7 555.3 431.3 543.7 450 539C468.7 534.3 487.3 536.7 506.2 541.7C525 546.7 544 554.3 562.8 557.8C581.7 561.3 600.3 560.7 619 556C637.7 551.3 656.3 542.7 675 544.5C693.7 546.3 712.3 558.7 731.2 563C750 567.3 769 563.7 787.8 556.7C806.7 549.7 825.3 539.3 844 538C862.7 536.7 881.3 544.3 890.7 548.2L900 552L900 676L890.7 676C881.3 676 862.7 676 844 676C825.3 676 806.7 676 787.8 676C769 676 750 676 731.2 676C712.3 676 693.7 676 675 676C656.3 676 637.7 676 619 676C600.3 676 581.7 676 562.8 676C544 676 525 676 506.2 676C487.3 676 468.7 676 450 676C431.3 676 412.7 676 394 676C375.3 676 356.7 676 337.8 676C319 676 300 676 281.2 676C262.3 676 243.7 676 225 676C206.3 676 187.7 676 169 676C150.3 676 131.7 676 112.8 676C94 676 75 676 56.2 676C37.3 676 18.7 676 9.3 676L0 676Z" fill="#00624d"></path><path d="M0 586L9.3 584.7C18.7 583.3 37.3 580.7 56.2 580.5C75 580.3 94 582.7 112.8 586.2C131.7 589.7 150.3 594.3 169 592.8C187.7 591.3 206.3 583.7 225 579.3C243.7 575 262.3 574 281.2 577.5C300 581 319 589 337.8 593.2C356.7 597.3 375.3 597.7 394 595.2C412.7 592.7 431.3 587.3 450 581C468.7 574.7 487.3 567.3 506.2 563.7C525 560 544 560 562.8 562.3C581.7 564.7 600.3 569.3 619 575.2C637.7 581 656.3 588 675 588.8C693.7 589.7 712.3 584.3 731.2 581C750 577.7 769 576.3 787.8 578.2C806.7 580 825.3 585 844 586.8C862.7 588.7 881.3 587.3 890.7 586.7L900 586L900 676L890.7 676C881.3 676 862.7 676 844 676C825.3 676 806.7 676 787.8 676C769 676 750 676 731.2 676C712.3 676 693.7 676 675 676C656.3 676 637.7 676 619 676C600.3 676 581.7 676 562.8 676C544 676 525 676 506.2 676C487.3 676 468.7 676 450 676C431.3 676 412.7 676 394 676C375.3 676 356.7 676 337.8 676C319 676 300 676 281.2 676C262.3 676 243.7 676 225 676C206.3 676 187.7 676 169 676C150.3 676 131.7 676 112.8 676C94 676 75 676 56.2 676C37.3 676 18.7 676 9.3 676L0 676Z" fill="#015241"></path><path d="M0 622L9.3 616.8C18.7 611.7 37.3 601.3 56.2 601.5C75 601.7 94 612.3 112.8 617.7C131.7 623 150.3 623 169 619.2C187.7 615.3 206.3 607.7 225 602.3C243.7 597 262.3 594 281.2 592.2C300 590.3 319 589.7 337.8 592C356.7 594.3 375.3 599.7 394 603.3C412.7 607 431.3 609 450 610.5C468.7 612 487.3 613 506.2 613.8C525 614.7 544 615.3 562.8 616.2C581.7 617 600.3 618 619 616.3C637.7 614.7 656.3 610.3 675 608C693.7 605.7 712.3 605.3 731.2 606.7C750 608 769 611 787.8 609.7C806.7 608.3 825.3 602.7 844 603.3C862.7 604 881.3 611 890.7 614.5L900 618L900 676L890.7 676C881.3 676 862.7 676 844 676C825.3 676 806.7 676 787.8 676C769 676 750 676 731.2 676C712.3 676 693.7 676 675 676C656.3 676 637.7 676 619 676C600.3 676 581.7 676 562.8 676C544 676 525 676 506.2 676C487.3 676 468.7 676 450 676C431.3 676 412.7 676 394 676C375.3 676 356.7 676 337.8 676C319 676 300 676 281.2 676C262.3 676 243.7 676 225 676C206.3 676 187.7 676 169 676C150.3 676 131.7 676 112.8 676C94 676 75 676 56.2 676C37.3 676 18.7 676 9.3 676L0 676Z" fill="#014335"></path><path d="M0 620L9.3 622C18.7 624 37.3 628 56.2 630.7C75 633.3 94 634.7 112.8 634C131.7 633.3 150.3 630.7 169 631C187.7 631.3 206.3 634.7 225 633.8C243.7 633 262.3 628 281.2 627.7C300 627.3 319 631.7 337.8 632.5C356.7 633.3 375.3 630.7 394 629C412.7 627.3 431.3 626.7 450 629.2C468.7 631.7 487.3 637.3 506.2 637.5C525 637.7 544 632.3 562.8 631.7C581.7 631 600.3 635 619 633.8C637.7 632.7 656.3 626.3 675 627C693.7 627.7 712.3 635.3 731.2 637C750 638.7 769 634.3 787.8 632.7C806.7 631 825.3 632 844 633.5C862.7 635 881.3 637 890.7 638L900 639L900 676L890.7 676C881.3 676 862.7 676 844 676C825.3 676 806.7 676 787.8 676C769 676 750 676 731.2 676C712.3 676 693.7 676 675 676C656.3 676 637.7 676 619 676C600.3 676 581.7 676 562.8 676C544 676 525 676 506.2 676C487.3 676 468.7 676 450 676C431.3 676 412.7 676 394 676C375.3 676 356.7 676 337.8 676C319 676 300 676 281.2 676C262.3 676 243.7 676 225 676C206.3 676 187.7 676 169 676C150.3 676 131.7 676 112.8 676C94 676 75 676 56.2 676C37.3 676 18.7 676 9.3 676L0 676Z" fill="#023429"></path></svg>